<svg xmlns="http://www.w3.org/2000/svg" x="0px" y="0px"
width="16" height="16"
viewBox="0 0 80 80"
style=" fill:#000000;"><path fill="#dcd5f2" d="M8.5 70.5H17.5V73.5H8.5z"></path><path fill="#8b75a1" d="M17,71v2H9v-2H17 M18,70H8v4h10V70L18,70z"></path><path fill="#dcd5f2" d="M7,71.5c-2.5,0-4.5-2-4.5-4.5V13c0-2.5,2-4.5,4.5-4.5h66c2.5,0,4.5,2,4.5,4.5v54 c0,2.5-2,4.5-4.5,4.5H7z"></path><path fill="#8b75a1" d="M73,9c2.2,0,4,1.8,4,4v54c0,2.2-1.8,4-4,4H7c-2.2,0-4-1.8-4-4V13c0-2.2,1.8-4,4-4H73 M73,8H7 c-2.8,0-5,2.2-5,5v54c0,2.8,2.2,5,5,5h66c2.8,0,5-2.2,5-5V13C78,10.2,75.8,8,73,8L73,8z"></path><path fill="#dcd5f2" d="M7,68.5c-0.8,0-1.5-0.7-1.5-1.5V13c0-0.8,0.7-1.5,1.5-1.5h66c0.8,0,1.5,0.7,1.5,1.5v54 c0,0.8-0.7,1.5-1.5,1.5H7z"></path><path fill="#8b75a1" d="M73,12c0.6,0,1,0.4,1,1v54c0,0.6-0.4,1-1,1H7c-0.6,0-1-0.4-1-1V13c0-0.6,0.4-1,1-1H73 M73,11H7 c-1.1,0-2,0.9-2,2v54c0,1.1,0.9,2,2,2h66c1.1,0,2-0.9,2-2V13C75,11.9,74.1,11,73,11L73,11z"></path><path fill="#b0c1d4" d="M48,59.5c-10.8,0-19.5-8.7-19.5-19.5S37.2,20.5,48,20.5S67.5,29.2,67.5,40S58.8,59.5,48,59.5z"></path><path fill="#66798f" d="M48,21c10.5,0,19,8.5,19,19s-8.5,19-19,19s-19-8.5-19-19S37.5,21,48,21 M48,20c-11,0-20,9-20,20 s9,20,20,20s20-9,20-20S59,20,48,20L48,20z"></path><path fill="#e1ebf2" d="M48,51.5c-6.3,0-11.5-5.2-11.5-11.5S41.7,28.5,48,28.5S59.5,33.7,59.5,40S54.3,51.5,48,51.5z"></path><path fill="#66798f" d="M48 29c6.1 0 11 4.9 11 11s-4.9 11-11 11-11-4.9-11-11S41.9 29 48 29M48 28c-6.6 0-12 5.4-12 12s5.4 12 12 12 12-5.4 12-12S54.6 28 48 28L48 28zM14 24c-1.7 0-3 1.3-3 3v26c0 1.7 1.3 3 3 3s3-1.3 3-3V27C17 25.3 15.7 24 14 24L14 24z"></path><path fill="#fff" d="M14,25L14,25c1.1,0,2,0.9,2,2v13h-4V27C12,25.9,12.9,25,14,25z"></path><path fill="#e1ebf2" d="M14,55L14,55c-1.1,0-2-0.9-2-2V40h4v13C16,54.1,15.1,55,14,55z"></path><path fill="#66798f" d="M40.9 21.9H41.9V26.4H40.9z" transform="rotate(-22.5 41.447 24.17)"></path><path fill="#66798f" d="M61.6 32.9H66.1V33.9H61.6z" transform="rotate(-22.508 63.833 33.443)"></path><path fill="#66798f" d="M29.9 46.1H34.4V47.1H29.9z" transform="rotate(-22.508 32.17 46.56)"></path><path fill="#66798f" d="M52.3 23.7H56.8V24.7H52.3z" transform="rotate(-67.492 54.56 24.17)"></path><path fill="#66798f" d="M39.2 55.3H43.7V56.3H39.2z" transform="rotate(-67.492 41.443 55.833)"></path><path fill="#66798f" d="M31.7 31.2H32.7V35.7H31.7z" transform="rotate(-67.5 32.166 33.441)"></path><g><path fill="#dcd5f2" d="M74.5 21.5H77.5V28.5H74.5z"></path><path fill="#8b75a1" d="M77,22v6h-2v-6H77 M78,21h-4v8h4V21L78,21z"></path></g><g><path fill="#dcd5f2" d="M74.5 51.5H77.5V58.5H74.5z"></path><path fill="#8b75a1" d="M77,52v6h-2v-6H77 M78,51h-4v8h4V51L78,51z"></path></g><g><path fill="#bae0bd" d="M62,79.5c-9.6,0-17.5-7.9-17.5-17.5S52.4,44.5,62,44.5S79.5,52.4,79.5,62S71.6,79.5,62,79.5z"></path><path fill="#5e9c76" d="M62,45c9.4,0,17,7.6,17,17s-7.6,17-17,17s-17-7.6-17-17S52.6,45,62,45 M62,44c-9.9,0-18,8.1-18,18 s8.1,18,18,18s18-8.1,18-18S71.9,44,62,44L62,44z"></path></g><path fill="#fff" d="M60.5 70.4L52.6 62.5 55.4 59.7 60.5 64.8 69.6 55.7 72.4 58.5z"></path></svg>